<svg id="a692e98a-90a4-48b7-8724-600c65179b03" data-name="Layer 1" xmlns="http://www.w3.org/2000/svg" width="865.76" height="682.89" viewBox="0 0 865.76 682.89"><path d="M681.67,630l16.57-10.5v-11h22.87l3.06,27.57H683.44A3.3,3.3,0,0,1,681.67,630Z" fill="#f9b499"/><path d="M778,606.09l5.45,16.18-24.27,13.79h35.64l9.67-6.31a5.9,5.9,0,0,0,2.5-6.36l-6.18-25.08Z" fill="#f9b499"/><rect x="526.02" y="258.33" width="279.13" height="194.1" rx="8.91" fill="#d1d3d4"/><rect x="526.02" y="289.56" width="279.13" height="27.84" opacity="0.2"/><rect x="526.02" y="317.4" width="279.13" height="37.99" fill="#ccc"/><rect x="540.72" y="329.5" width="68.98" height="13.78" rx="4.93" fill="#bcbec0"/><rect x="631.09" y="329.5" width="68.98" height="13.78" rx="4.93" fill="#bcbec0"/><circle cx="783.48" cy="339.22" r="5.45" fill="#bcbec0"/><circle cx="765.7" cy="339.22" r="5.45" fill="#bcbec0"/><circle cx="748.07" cy="339.22" r="5.45" fill="#bcbec0"/><rect x="220.49" y="46.83" width="292.44" height="589.23" rx="23.34" fill="#75a2c7"/><rect x="227.54" y="55.11" width="277.41" height="572.35" rx="19.44" opacity="0.2"/><rect x="238.72" y="65.23" width="254.25" height="554.24" rx="16" fill="#fff"/><rect x="264.57" y="180.23" width="200.45" height="235.59" fill="#ccc"/><path d="M310.89,397.46s-2.4-79.47,25.95-115.8l-3.59-37.14-9.41,18.37-24.53-12,14.3-29.29a37.72,37.72,0,0,1,10.46-13.23c5.19-4.1,12.37-7.39,20.36-4.2,0,0,25.56,7.59,39.53.4,0,0,20-4,29.55,17.17s14.38,30,14.38,30l-24,11.58-8.39-17.17-4.79,36.34s27.95,40.53,22.56,115Z" fill="#414fe6"/><polygon points="390.93 281.08 336.79 281.08 336.34 276.42 391.55 276.42 390.93 281.08" fill="#fff"/><path d="M347.23,281.08s-5.19,7.77-2,16.95h2v-6.39l4.39-.4s-.8-10.16,2.39-10.16Z" fill="#fff"/><path d="M344.43,204.19s-4,21.23,18.05,26.12a17.19,17.19,0,0,0,12.49-1.8c5-3,10-9.49,9-23.92C384,204.59,373.35,211.79,344.43,204.19Z" opacity="0.2"/><rect x="264.57" y="436.59" width="125.38" height="6.59" fill="#ccc"/><rect x="264.57" y="449.17" width="66.09" height="6.59" fill="#ccc"/><rect x="264.57" y="461.75" width="66.09" height="6.59" fill="#ccc"/><path d="M398.87,136.13a7.9,7.9,0,1,0,5.21,9.88A7.89,7.89,0,0,0,398.87,136.13Zm2.44,9a5,5,0,1,1-3.3-6.25A5,5,0,0,1,401.31,145.15Z" fill="#ccc"/><rect x="402.63" y="149.13" width="1.4" height="8.78" transform="translate(-11.14 273.75) rotate(-37.01)" fill="#ccc"/><polygon points="450.78 157.03 466.3 157.03 465.02 143.3 450.78 143.3 450.78 157.03" fill="#ccc"/><path d="M462.47,146h-1.4v-5.33a2.86,2.86,0,1,0-5.71,0V146H454v-5.33a4.26,4.26,0,1,1,8.51,0Z" fill="#ccc"/><rect x="264.57" y="138.68" width="22.45" height="1.4" fill="#ccc"/><rect x="264.57" y="146.72" width="22.45" height="1.4" fill="#ccc"/><rect x="264.57" y="154.22" width="22.45" height="1.4" fill="#ccc"/><rect x="280.64" y="493.62" width="161.68" height="36.1" fill="#ccc"/><rect x="57.74" y="511.68" width="191.51" height="124.38" fill="#ccc"/><path d="M165.14,543.2V511.68h33.54V543.2l-6.92-4.9a4,4,0,0,0-5,.36l-1.92,1.81a5,5,0,0,1-6.21.52l-2.86-1.9a4,4,0,0,0-4.42,0Z" opacity="0.2"/><g opacity="0.2"><rect x="130.4" y="573.17" width="34.74" height="1.4"/></g><g opacity="0.2"><rect x="130.4" y="586.83" width="34.74" height="1.4"/></g><g opacity="0.2"><rect x="130.4" y="600.49" width="34.74" height="1.4"/></g><rect x="174.73" y="569.16" width="56.3" height="36.34" opacity="0.2"/><rect x="57.74" y="511.68" width="42.72" height="124.38" opacity="0.2"/><polygon points="114.78 412.21 109.9 511.68 137.81 511.68 132.5 412.21 114.78 412.21" fill="#bcbec0"/><polygon points="190.98 412.21 195.85 511.68 137.81 511.68 132.5 412.21 190.98 412.21" fill="#d1d3d4"/><path d="M166,440A14.48,14.48,0,0,1,151.56,426L151,410.79a3.27,3.27,0,0,0-6.53.11v1.31h-1.4V410.9a4.66,4.66,0,0,1,9.32-.17L153,426a13.08,13.08,0,1,0,26.14-1l-.54-14.28a3.22,3.22,0,0,0-6.44-.06l-.09,1.57-1.4-.08.09-1.57a4.63,4.63,0,0,1,9.24.09L180.5,425a14.52,14.52,0,0,1-13.84,15Z" fill="#bcbec0"/><rect x="123.16" y="412.21" width="1.4" height="82.03" fill="#d1d3d4"/><polygon points="136.94 511.68 123.86 494.24 110.79 511.68 109.9 511.68 123.86 492.48 137.81 511.68 136.94 511.68" fill="#d1d3d4"/><polygon points="146.58 452.46 155.14 452.46 170.55 511.68 148.58 511.68 146.58 452.46" fill="#bcbec0"/><path d="M170.55,511.68h-22l7.28-15.59Zm-20.61-.61h18.59l-12.4-13.3Z" fill="#d1d3d4"/><polygon points="155.14 452.46 203.07 453.22 218.76 511.68 170.55 511.68 155.14 452.46" fill="#d1d3d4"/><path d="M186.1,472.88a10,10,0,0,1-9.29-6.28l-6.24-15.52a1.94,1.94,0,0,0-1.81-1.21h-.22a1.94,1.94,0,0,0-1.88,2.42l-1.35.34a3.33,3.33,0,0,1,3.23-4.16h.22a3.33,3.33,0,0,1,3.1,2.09l6.25,15.52a8.61,8.61,0,0,0,16.23-5.73l-2.86-9.4a1.54,1.54,0,1,0-2.94.92l.36,1.14-1.33.42-.36-1.14a2.93,2.93,0,1,1,5.6-1.75l2.87,9.4a10,10,0,0,1-9.58,12.94Z" fill="#bcbec0"/><circle cx="107.89" cy="237.76" r="43.25" fill="#d1d3d4"/><path d="M102.66,245.93l28.57-28.23a4.88,4.88,0,0,1,7,.12h0a4.88,4.88,0,0,1-.18,6.9l-36,34.23a1.73,1.73,0,0,1-2.4,0L78,238a4.69,4.69,0,0,1,.07-6.79h0a4.68,4.68,0,0,1,6.52.13l14.45,14.6A2.53,2.53,0,0,0,102.66,245.93Z" fill="#fff"/><circle cx="614.5" cy="96.99" r="38.47" fill="#ccc"/><path d="M665.58,257.36s23.19-39.07,81.6-20.61c0,0,32.63,8.16,29.2,31.78,0,0-14.28,63-34.92,81.36a13.84,13.84,0,0,1-17.18.91l-58.7-41.48L672,279.69l54.53,34.36,17.61-55.83Z" fill="#414fe6"/><path d="M667.57,300.18l-39.42-20a9.77,9.77,0,0,1-3.94-13.76h0a9.78,9.78,0,0,1,13.11-3.5l17.1,9.49L647,264.93a3.06,3.06,0,0,1-.19-4.14h0a3.07,3.07,0,0,1,4.43-.28L672,279.69Z" fill="#f9b499"/><rect x="566.05" y="386.28" width="103.02" height="13.78" rx="4.93" fill="#ccc"/><rect x="698.24" y="386.28" width="68.98" height="13.78" rx="4.93" fill="#ccc"/><rect x="566.05" y="404.64" width="103.02" height="13.78" rx="4.93" fill="#ccc"/><path d="M718,475.11l.09,1.19,10.1,136.57H686.28c-3.6-9-10.18-160.72-10.18-160.72l41.92.37Z" fill="#75a2c7"/><path d="M711.43,452.33V471.2a14.82,14.82,0,0,0,1.26,6l59.5,135.5,36.87-12.58L761.28,471.93l-1-19.5Z" fill="#75a2c7"/><path d="M428,139.1a6.5,6.5,0,0,1,4.08-1.93c3.56-.27,5.57,1.7,5.87,5.15a8.51,8.51,0,0,1-2.26,6.58,26.47,26.47,0,0,1-7.11,5.84,1.11,1.11,0,0,1-1.33-.07,32.4,32.4,0,0,1-4.85-3.43,7.73,7.73,0,0,1-1.08-1.06,27,27,0,0,1-2.58-3.58,7.36,7.36,0,0,1-.53-5.76,4.82,4.82,0,0,1,3.48-3.51,6,6,0,0,1,5.67,1.31l.47.39Z" fill="#ccc"/><path d="M453.21,437.92a6.45,6.45,0,0,1,4.08-1.93c3.56-.27,5.56,1.7,5.86,5.15a8.47,8.47,0,0,1-2.25,6.58,26.43,26.43,0,0,1-7.11,5.83,1.11,1.11,0,0,1-1.33-.06,32.4,32.4,0,0,1-4.85-3.43,9,9,0,0,1-1.08-1.06,27,27,0,0,1-2.58-3.58,7.38,7.38,0,0,1-.53-5.77,4.83,4.83,0,0,1,3.47-3.5,6,6,0,0,1,5.67,1.3q.24.21.48.39S453.11,437.87,453.21,437.92Z" fill="#ccc"/><circle cx="608.91" cy="96.99" r="38.47" fill="#d1d3d4"/><path d="M610.53,116.2v4.07H607v-4c-6.78-.59-10.67-4.73-10.67-11h4.3c0,4.35,3.44,6.88,8.09,6.88,4.23,0,7.61-2.32,7.61-5.83,0-3.89-3.91-4.77-8.25-5.74-5.26-1.14-11.14-2.48-11.14-9.45,0-5.34,3.75-8.75,9.68-9.32V78h3.7v3.84c5.92.66,9.37,4.51,9.37,10.27h-4.21c0-4-3-6.3-7.15-6.3s-7.13,1.93-7.13,5.14c0,3.65,3.82,4.51,8.07,5.53,5.36,1.19,11.36,2.62,11.36,9.8C620.59,111.77,616.66,115.57,610.53,116.2Z" fill="#fff"/><path d="M704.66,216.13v15.22c0,8.76,6.18,15.86,13.81,15.86h0c7.63,0,13.81-7.1,13.81-15.86V202.91Z" fill="#f9b499"/><polygon points="704.66 228.9 704.66 224.08 721.11 222.33 704.66 228.9" fill="#f4a48e"/><ellipse cx="710.89" cy="196.77" rx="23.83" ry="28.29" fill="#f9b499"/><ellipse cx="749.75" cy="169.82" rx="17.47" ry="15.81" fill="#75a2c7"/><path d="M691.69,178.72s7.32,13.52,24.14,9.08c0,0,8,21.16,14.11,20.89,0,0,6.91-.91,8.38-18.3a28.27,28.27,0,0,0-3.85-17.19c-2.3-3.74-5.7-7.18-10.57-7.69-1.44-.16-2.88-.24-4.32-.45C713.5,164.19,696.84,163.33,691.69,178.72Z" fill="#75a2c7"/><circle cx="721.11" cy="195.3" r="5.18" fill="#f9b499"/></svg>